<svg id="Group_131" data-name="Group 131" xmlns="http://www.w3.org/2000/svg" viewBox="0 0 875 809.615">
  <defs>
    <style>
      .cls-1 {
        fill: #74b9ff;
      }

      .cls-2 {
        fill: #c0f9ff;
        opacity: 0.17;
      }
    </style>
  </defs>
  <path id="Path_219" data-name="Path 219" class="cls-1" d="M0,0H875V809.615H0Z"/>
  <g id="Group_129" data-name="Group 129" transform="translate(399 609)">
    <path id="Path_220" data-name="Path 220" class="cls-2" d="M21.9,120a21.9,21.9,0,0,1,0-43.8,22.649,22.649,0,0,1,6.9,1.1A27.814,27.814,0,0,1,81,67a26.757,26.757,0,0,1,12-2.7,27.8,27.8,0,1,1,0,55.6H21.9Z" transform="translate(240 -180)"/>
    <path id="Path_221" data-name="Path 221" class="cls-2" d="M211.1,95.4c-20.9,0-37.8-13.8-37.8-30.9s16.9-30.9,37.8-30.9A41.74,41.74,0,0,1,223,35.2C225.5,15.4,246,0,270.9,0c18.3,0,34.3,8.4,42.4,20.7a56.6,56.6,0,0,1,20.8-3.9c26.6,0,48.1,17.6,48.1,39.3s-21.5,39.3-48.1,39.3h-123Z" transform="translate(-384 7)"/>
  </g>
  <g id="Group_130" data-name="Group 130" transform="translate(55 119)">
    <path id="Path_220-2" data-name="Path 220" class="cls-2" d="M21.9,120a21.9,21.9,0,0,1,0-43.8,22.649,22.649,0,0,1,6.9,1.1A27.814,27.814,0,0,1,81,67a26.757,26.757,0,0,1,12-2.7,27.8,27.8,0,1,1,0,55.6H21.9Z" transform="translate(-2 111)"/>
    <path id="Path_221-2" data-name="Path 221" class="cls-2" d="M211.1,95.4c-20.9,0-37.8-13.8-37.8-30.9s16.9-30.9,37.8-30.9A41.74,41.74,0,0,1,223,35.2C225.5,15.4,246,0,270.9,0c18.3,0,34.3,8.4,42.4,20.7a56.6,56.6,0,0,1,20.8-3.9c26.6,0,48.1,17.6,48.1,39.3s-21.5,39.3-48.1,39.3h-123Z" transform="translate(336 -21)"/>
  </g>
</svg>
