<svg xmlns="http://www.w3.org/2000/svg" viewBox="0 0 460 460">
  <defs>
    <style>
      .cls-1 {
        fill: #fff;
        stroke: #74b9ff;
        stroke-width: 10px;
      }

      .cls-2, .cls-3 {
        fill: #2d3436;
      }

      .cls-2 {
        font-size: 86px;
        font-family: CircularStd-Medium, Circular Std Medium;
        font-weight: 500;
      }

      .cls-3 {
        font-size: 50px;
        font-family: CircularStd-Book, Circular Std Book;
      }

      .cls-4 {
        stroke: none;
      }

      .cls-5 {
        fill: none;
      }
    </style>
  </defs>
  <g id="Group_120" data-name="Group 120" transform="translate(-730 -2964)">
    <g id="Rectangle_128" data-name="Rectangle 128" class="cls-1" transform="translate(730 2964)">
      <path class="cls-4" d="M200,0H460a0,0,0,0,1,0,0V260A200,200,0,0,1,260,460H0a0,0,0,0,1,0,0V200A200,200,0,0,1,200,0Z"/>
      <path class="cls-5" d="M200,5H450a5,5,0,0,1,5,5V260A195,195,0,0,1,260,455H10a5,5,0,0,1-5-5V200A195,195,0,0,1,200,5Z"/>
    </g>
    <text id="Mohamed" class="cls-2" transform="translate(776 3144)"><tspan x="0" y="0">Mohamed</tspan></text>
    <text id="Database._Authentication." data-name="Database.Authentication." class="cls-3" transform="translate(751 3285)"><tspan x="0" y="0">Database.</tspan><tspan x="0" y="70">Authentication.</tspan></text>
  </g>
</svg>
