<svg xmlns="http://www.w3.org/2000/svg" viewBox="0 0 1802.906 1080">
  <defs>
    <style>
      .cls-1 {
        fill: #74b9ff;
      }

      .cls-2 {
        fill: #c0f9ff;
        opacity: 0.17;
      }
    </style>
  </defs>
  <g id="Group_139" data-name="Group 139" transform="translate(-16753.094 -1856)">
    <rect id="Rectangle_160" data-name="Rectangle 160" class="cls-1" width="1785" height="1080" transform="translate(16771 1856)"/>
    <path id="Path_247" data-name="Path 247" class="cls-2" d="M276.05,321.787c-56.811,0-102.75-46.548-102.75-104.227s45.938-104.227,102.75-104.227a93.016,93.016,0,0,1,32.347,5.4C315.193,51.945,370.917,0,438.6,0c49.744,0,93.236,28.333,115.254,69.822A127.986,127.986,0,0,1,610.4,56.667c72.306,0,130.748,59.365,130.748,132.56S682.7,321.787,610.4,321.787H276.05Z" transform="translate(16597 2609.85)"/>
    <path id="Path_248" data-name="Path 248" class="cls-2" d="M84.824,314.518a84.824,84.824,0,0,1,0-169.648,87.725,87.725,0,0,1,26.725,4.261C116.972,94.906,163.063,52.3,218.838,52.3a107.272,107.272,0,0,1,94.894,56.936c13.944-6.972,29.824-10.458,46.479-10.458a107.676,107.676,0,1,1,0,215.352H84.824Z" transform="translate(16753.094 2059.924)"/>
    <path id="Path_249" data-name="Path 249" class="cls-2" d="M104.369,374.939a104.369,104.369,0,1,1,0-208.738,107.939,107.939,0,0,1,32.883,5.242C143.925,104.723,200.637,52.3,269.263,52.3a131.99,131.99,0,0,1,116.76,70.056c17.157-8.578,36.7-12.867,57.189-12.867a132.487,132.487,0,1,1,0,264.974H104.369Z" transform="translate(17876.094 2517.503)"/>
    <path id="Path_250" data-name="Path 250" class="cls-2" d="M39.835,175.442a39.835,39.835,0,1,1,0-79.669,41.2,41.2,0,0,1,12.551,2,50.592,50.592,0,0,1,94.948-18.735,48.669,48.669,0,0,1,21.827-4.911,50.566,50.566,0,0,1,0,101.133H39.835Z" transform="translate(18234.094 1862)"/>
    <path id="Path_251" data-name="Path 251" class="cls-2" d="M20.523,115.742a20.523,20.523,0,0,1,0-41.045,21.225,21.225,0,0,1,6.466,1.031,26.065,26.065,0,0,1,48.917-9.652,25.074,25.074,0,0,1,11.245-2.53,26.052,26.052,0,1,1,0,52.1H20.523Z" transform="translate(18054.094 1940.7)"/>
    <path id="Path_252" data-name="Path 252" class="cls-2" d="M20.523,115.742a20.523,20.523,0,0,1,0-41.045,21.225,21.225,0,0,1,6.466,1.031,26.065,26.065,0,0,1,48.917-9.652,25.074,25.074,0,0,1,11.245-2.53,26.052,26.052,0,1,1,0,52.1H20.523Z" transform="translate(17415.094 2091.7)"/>
  </g>
</svg>
